<svg width="189" height="48" viewBox="0 0 189 48" fill="none" xmlns="http://www.w3.org/2000/svg">
<path d="M21.58 4C17.94 4 15 6.90426 15 10.5C15 14.0681 17.94 16.9723 21.552 17C20.656 16.9723 19.956 16.2532 19.956 15.3681C19.956 14.483 20.684 13.7362 21.608 13.7362C25.528 13.7362 34.236 13.7362 38.072 13.7362C40.788 13.7362 43 11.5511 43 8.86812C43 6.1851 40.788 4 38.072 4L21.58 4Z" fill="#0E0E0E"/>
<path d="M13.58 17C9.94 17 7 19.9043 7 23.5C7 27.0681 9.94 29.9723 13.552 30C12.656 29.9723 11.956 29.2532 11.956 28.3681C11.956 27.483 12.684 26.7362 13.608 26.7362C17.528 26.7362 26.236 26.7362 30.072 26.7362C32.788 26.7362 35 24.5511 35 21.8681C35 19.1851 32.788 17 30.072 17L13.58 17Z" fill="#0E0E0E"/>
<path d="M8.05 30C4.15 30 1 33.1277 1 37C1 40.8426 4.15 43.9702 8.01998 44C7.05999 43.9702 6.31 43.1958 6.31 42.2425C6.31 41.2894 7.09002 40.4851 8.08003 40.4851C12.28 40.4851 21.61 40.4851 25.72 40.4851C28.63 40.4851 31 38.1319 31 35.2426C31 32.3532 28.63 30 25.72 30L8.05 30Z" fill="#0E0E0E"/>
<path d="M52.98 33.9092V12.9092H66.48V16.5092H56.94V21.5192H65.64V25.1192H56.94V30.3092H66.66V33.9092H52.98Z" fill="#0E0E0E"/>
<path d="M68.2113 39.9092V19.0292H71.9313V20.8292H72.4713C72.8113 20.2492 73.3413 19.7392 74.0613 19.2992C74.7813 18.8392 75.8113 18.6092 77.1513 18.6092C78.3513 18.6092 79.4613 18.9092 80.4813 19.5092C81.5013 20.0892 82.3213 20.9492 82.9413 22.0892C83.5613 23.2292 83.8713 24.6092 83.8713 26.2292V26.7092C83.8713 28.3292 83.5613 29.7092 82.9413 30.8492C82.3213 31.9892 81.5013 32.8592 80.4813 33.4592C79.4613 34.0392 78.3513 34.3292 77.1513 34.3292C76.2513 34.3292 75.4913 34.2192 74.8713 33.9992C74.2713 33.7992 73.7813 33.5392 73.4013 33.2192C73.0413 32.8792 72.7513 32.5392 72.5313 32.1992H71.9913V39.9092H68.2113ZM76.0113 31.0292C77.1913 31.0292 78.1613 30.6592 78.9213 29.9192C79.7013 29.1592 80.0913 28.0592 80.0913 26.6192V26.3192C80.0913 24.8792 79.7013 23.7892 78.9213 23.0492C78.1413 22.2892 77.1713 21.9092 76.0113 21.9092C74.8513 21.9092 73.8813 22.2892 73.1013 23.0492C72.3213 23.7892 71.9313 24.8792 71.9313 26.3192V26.6192C71.9313 28.0592 72.3213 29.1592 73.1013 29.9192C73.8813 30.6592 74.8513 31.0292 76.0113 31.0292Z" fill="#0E0E0E"/>
<path d="M85.8422 33.9092V19.0292H89.6222V33.9092H85.8422ZM87.7322 17.2892C87.0522 17.2892 86.4722 17.0692 85.9922 16.6292C85.5322 16.1892 85.3022 15.6092 85.3022 14.8892C85.3022 14.1692 85.5322 13.5892 85.9922 13.1492C86.4722 12.7092 87.0522 12.4892 87.7322 12.4892C88.4322 12.4892 89.0122 12.7092 89.4722 13.1492C89.9322 13.5892 90.1622 14.1692 90.1622 14.8892C90.1622 15.6092 89.9322 16.1892 89.4722 16.6292C89.0122 17.0692 88.4322 17.2892 87.7322 17.2892Z" fill="#0E0E0E"/>
<path d="M99.3009 34.3292C97.8609 34.3292 96.5509 34.0292 95.3709 33.4292C94.2109 32.8292 93.2909 31.9592 92.6109 30.8192C91.9309 29.6792 91.5909 28.2992 91.5909 26.6792V26.2592C91.5909 24.6392 91.9309 23.2592 92.6109 22.1192C93.2909 20.9792 94.2109 20.1092 95.3709 19.5092C96.5509 18.9092 97.8609 18.6092 99.3009 18.6092C100.721 18.6092 101.941 18.8592 102.961 19.3592C103.981 19.8592 104.801 20.5492 105.421 21.4292C106.061 22.2892 106.481 23.2692 106.681 24.3692L103.021 25.1492C102.941 24.5492 102.761 24.0092 102.481 23.5292C102.201 23.0492 101.801 22.6692 101.281 22.3892C100.781 22.1092 100.151 21.9692 99.3909 21.9692C98.6309 21.9692 97.9409 22.1392 97.3209 22.4792C96.7209 22.7992 96.2409 23.2892 95.8809 23.9492C95.5409 24.5892 95.3709 25.3792 95.3709 26.3192V26.6192C95.3709 27.5592 95.5409 28.3592 95.8809 29.0192C96.2409 29.6592 96.7209 30.1492 97.3209 30.4892C97.9409 30.8092 98.6309 30.9692 99.3909 30.9692C100.531 30.9692 101.391 30.6792 101.971 30.0992C102.571 29.4992 102.951 28.7192 103.111 27.7592L106.771 28.6292C106.511 29.6892 106.061 30.6592 105.421 31.5392C104.801 32.3992 103.981 33.0792 102.961 33.5792C101.941 34.0792 100.721 34.3292 99.3009 34.3292Z" fill="#0E0E0E"/>
<path d="M114.059 34.1492C112.899 34.1492 111.879 33.8892 110.999 33.3692C110.139 32.8292 109.469 32.0892 108.989 31.1492C108.509 30.2092 108.269 29.1292 108.269 27.9092V19.0292H112.049V27.6092C112.049 28.7292 112.319 29.5692 112.859 30.1292C113.419 30.6892 114.209 30.9692 115.229 30.9692C116.389 30.9692 117.289 30.5892 117.929 29.8292C118.569 29.0492 118.889 27.9692 118.889 26.5892V19.0292H122.669V33.9092H118.949V31.9592H118.409C118.169 32.4592 117.719 32.9492 117.059 33.4292C116.399 33.9092 115.399 34.1492 114.059 34.1492Z" fill="#0E0E0E"/>
<path d="M125.375 33.9092V19.0292H129.095V20.7092H129.635C129.855 20.1092 130.215 19.6692 130.715 19.3892C131.235 19.1092 131.835 18.9692 132.515 18.9692H134.315V22.3292H132.455C131.495 22.3292 130.705 22.5892 130.085 23.1092C129.465 23.6092 129.155 24.3892 129.155 25.4492V33.9092H125.375Z" fill="#0E0E0E"/>
<path d="M135.77 33.9092V19.0292H139.55V33.9092H135.77ZM137.66 17.2892C136.98 17.2892 136.4 17.0692 135.92 16.6292C135.46 16.1892 135.23 15.6092 135.23 14.8892C135.23 14.1692 135.46 13.5892 135.92 13.1492C136.4 12.7092 136.98 12.4892 137.66 12.4892C138.36 12.4892 138.94 12.7092 139.4 13.1492C139.86 13.5892 140.09 14.1692 140.09 14.8892C140.09 15.6092 139.86 16.1892 139.4 16.6292C138.94 17.0692 138.36 17.2892 137.66 17.2892Z" fill="#0E0E0E"/>
<path d="M149.319 34.3292C147.839 34.3292 146.509 34.0292 145.329 33.4292C144.149 32.8292 143.219 31.9592 142.539 30.8192C141.859 29.6792 141.519 28.3092 141.519 26.7092V26.2292C141.519 24.6292 141.859 23.2592 142.539 22.1192C143.219 20.9792 144.149 20.1092 145.329 19.5092C146.509 18.9092 147.839 18.6092 149.319 18.6092C150.799 18.6092 152.129 18.9092 153.309 19.5092C154.489 20.1092 155.419 20.9792 156.099 22.1192C156.779 23.2592 157.119 24.6292 157.119 26.2292V26.7092C157.119 28.3092 156.779 29.6792 156.099 30.8192C155.419 31.9592 154.489 32.8292 153.309 33.4292C152.129 34.0292 150.799 34.3292 149.319 34.3292ZM149.319 30.9692C150.479 30.9692 151.439 30.5992 152.199 29.8592C152.959 29.0992 153.339 28.0192 153.339 26.6192V26.3192C153.339 24.9192 152.959 23.8492 152.199 23.1092C151.459 22.3492 150.499 21.9692 149.319 21.9692C148.159 21.9692 147.199 22.3492 146.439 23.1092C145.679 23.8492 145.299 24.9192 145.299 26.3192V26.6192C145.299 28.0192 145.679 29.0992 146.439 29.8592C147.199 30.5992 148.159 30.9692 149.319 30.9692Z" fill="#0E0E0E"/>
<path d="M164.778 34.1492C163.618 34.1492 162.598 33.8892 161.718 33.3692C160.858 32.8292 160.188 32.0892 159.708 31.1492C159.228 30.2092 158.988 29.1292 158.988 27.9092V19.0292H162.768V27.6092C162.768 28.7292 163.038 29.5692 163.578 30.1292C164.138 30.6892 164.928 30.9692 165.948 30.9692C167.108 30.9692 168.008 30.5892 168.648 29.8292C169.288 29.0492 169.608 27.9692 169.608 26.5892V19.0292H173.388V33.9092H169.668V31.9592H169.128C168.888 32.4592 168.438 32.9492 167.778 33.4292C167.118 33.9092 166.118 34.1492 164.778 34.1492Z" fill="#0E0E0E"/>
<path d="M182.274 34.3292C180.334 34.3292 178.744 33.9092 177.504 33.0692C176.264 32.2292 175.514 31.0292 175.254 29.4692L178.734 28.5692C178.874 29.2692 179.104 29.8192 179.424 30.2192C179.764 30.6192 180.174 30.9092 180.654 31.0892C181.154 31.2492 181.694 31.3292 182.274 31.3292C183.154 31.3292 183.804 31.1792 184.224 30.8792C184.644 30.5592 184.854 30.1692 184.854 29.7092C184.854 29.2492 184.654 28.8992 184.254 28.6592C183.854 28.3992 183.214 28.1892 182.334 28.0292L181.494 27.8792C180.454 27.6792 179.504 27.4092 178.644 27.0692C177.784 26.7092 177.094 26.2192 176.574 25.5992C176.054 24.9792 175.794 24.1792 175.794 23.1992C175.794 21.7192 176.334 20.5892 177.414 19.8092C178.494 19.0092 179.914 18.6092 181.674 18.6092C183.334 18.6092 184.714 18.9792 185.814 19.7192C186.914 20.4592 187.634 21.4292 187.974 22.6292L184.464 23.7092C184.304 22.9492 183.974 22.4092 183.474 22.0892C182.994 21.7692 182.394 21.6092 181.674 21.6092C180.954 21.6092 180.404 21.7392 180.024 21.9992C179.644 22.2392 179.454 22.5792 179.454 23.0192C179.454 23.4992 179.654 23.8592 180.054 24.0992C180.454 24.3192 180.994 24.4892 181.674 24.6092L182.514 24.7592C183.634 24.9592 184.644 25.2292 185.544 25.5692C186.464 25.8892 187.184 26.3592 187.704 26.9792C188.244 27.5792 188.514 28.3992 188.514 29.4392C188.514 30.9992 187.944 32.2092 186.804 33.0692C185.684 33.9092 184.174 34.3292 182.274 34.3292Z" fill="#0E0E0E"/>
</svg>
