<svg width="142" height="41" viewBox="0 0 142 41" fill="none" xmlns="http://www.w3.org/2000/svg">
<circle cx="18.7535" cy="20.6713" r="17.4748" stroke="#020202" stroke-width="2.55729"/>
<path d="M25.6852 27.6031C22.1567 31.1317 18.1592 33.4351 14.5991 34.3506C11.0069 35.2743 8.11154 34.7425 6.39695 33.028C4.68237 31.3134 4.15063 28.418 5.07435 24.8258C5.98979 21.2657 8.29324 17.2682 11.8218 13.7397C15.3503 10.2111 19.3478 7.90767 22.9079 6.99223C26.5001 6.06852 29.3955 6.60025 31.1101 8.31484C32.8247 10.0294 33.3564 12.9248 32.4327 16.517C31.5172 20.0771 29.2138 24.0746 25.6852 27.6031Z" stroke="#020202" stroke-width="2.55729"/>
<path d="M25.685 13.7397C29.2136 17.2682 31.517 21.2657 32.4325 24.8258C33.3562 28.418 32.8245 31.3134 31.1099 33.028C29.3953 34.7426 26.4999 35.2743 22.9077 34.3506C19.3476 33.4351 15.3501 31.1317 11.8216 27.6031C8.29303 24.0746 5.98958 20.0771 5.07414 16.517C4.15043 12.9248 4.68216 10.0294 6.39675 8.31485C8.11133 6.60027 11.0067 6.06853 14.5989 6.99225C18.159 7.90769 22.1565 10.2111 25.685 13.7397Z" stroke="#020202" stroke-width="2.55729"/>
<path d="M53.5752 29.1872C57.5901 29.1872 60.3008 27.0902 60.3008 23.7402C60.3008 16.6565 50.89 19.6741 50.89 15.9404C50.89 14.8919 51.8362 14.1759 53.345 14.1759C55.0584 14.1759 56.1324 15.0965 56.2603 16.503H59.9172C59.8149 13.1018 57.2065 10.877 53.345 10.877C49.7136 10.877 47.1564 12.974 47.1564 15.9404C47.1564 22.973 56.4393 20.2878 56.4393 23.7913C56.4393 25.1467 55.2885 25.8627 53.5752 25.8627C51.6828 25.8627 50.4808 24.7119 50.3274 22.8963H46.6449C46.7983 26.7066 49.5091 29.1872 53.5752 29.1872Z" fill="#020202"/>
<path d="M61.1705 34.1995H64.7251V27.8318C65.4156 28.7013 66.6687 29.1872 68.1263 29.1872C71.8344 29.1872 74.3406 26.5532 74.3406 22.5382C74.3406 18.5233 72.039 15.8893 68.4332 15.8893C66.771 15.8893 65.4923 16.503 64.7251 17.5004V16.0939H61.1705V34.1995ZM67.6916 26.1185C65.7736 26.1185 64.5206 24.6864 64.5206 22.5382C64.5206 20.3646 65.7736 18.9325 67.6916 18.9325C69.5584 18.9325 70.8371 20.3646 70.8371 22.5382C70.8371 24.6864 69.5584 26.1185 67.6916 26.1185Z" fill="#020202"/>
<path d="M75.2006 28.9826H78.7553V21.9245C78.7553 20.2623 79.8549 19.0603 81.4149 19.0603C82.8981 19.0603 83.921 20.1855 83.921 21.7455V28.9826H87.4756V20.9527C87.4756 17.9863 85.5832 15.8893 82.6935 15.8893C80.9034 15.8893 79.4969 16.6309 78.7553 17.884V10.4934H75.2006V28.9826Z" fill="#020202"/>
<path d="M97.4195 24.6097C97.1382 25.7093 96.192 26.2719 94.7599 26.2719C92.9698 26.2719 91.819 25.1467 91.5633 23.331H100.821C100.846 23.0497 100.872 22.6661 100.872 22.1802C100.872 19.2393 99.0562 15.8893 94.5042 15.8893C90.1312 15.8893 88.1365 19.2393 88.1365 22.5127C88.1365 25.7604 90.3869 29.1872 94.7599 29.1872C97.931 29.1872 100.386 27.3971 100.897 24.6097H97.4195ZM94.5042 18.4977C96.2176 18.4977 97.2149 19.6485 97.3172 21.0806H91.6144C91.9213 19.2905 92.8931 18.4977 94.5042 18.4977Z" fill="#020202"/>
<path d="M110.194 19.0603V16.0939H108.36C106.8 16.0939 105.829 16.6309 105.138 18.242V16.0939H101.558V28.9826H105.138V22.7173C105.138 20.518 105.931 19.0603 107.695 19.0603H110.194Z" fill="#020202"/>
<path d="M122.469 16.0939H118.889V23.152C118.889 24.7887 117.79 26.0162 116.23 26.0162C114.772 26.0162 113.749 24.891 113.749 23.331V16.0939H110.194V24.1238C110.194 27.0647 112.087 29.1872 114.976 29.1872C116.741 29.1872 118.173 28.42 118.889 27.1925V28.9826H122.469V16.0939Z" fill="#020202"/>
<path d="M124.004 28.9826H127.559V10.4934H124.004V28.9826Z" fill="#020202"/>
<path d="M137.707 24.6097C137.426 25.7093 136.479 26.2719 135.047 26.2719C133.257 26.2719 132.106 25.1467 131.851 23.331H141.108C141.134 23.0497 141.159 22.6661 141.159 22.1802C141.159 19.2393 139.343 15.8893 134.791 15.8893C130.419 15.8893 128.424 19.2393 128.424 22.5127C128.424 25.7604 130.674 29.1872 135.047 29.1872C138.218 29.1872 140.673 27.3971 141.185 24.6097H137.707ZM134.791 18.4977C136.505 18.4977 137.502 19.6485 137.605 21.0806H131.902C132.209 19.2905 133.18 18.4977 134.791 18.4977Z" fill="#020202"/>
</svg>
