<svg width="145" height="41" viewBox="0 0 145 41" fill="none" xmlns="http://www.w3.org/2000/svg">
<path fill-rule="evenodd" clip-rule="evenodd" d="M18.7535 39.2118C29.1107 39.2118 37.5069 30.8155 37.5069 20.4583C37.5069 10.1011 29.1107 1.70483 18.7535 1.70483C8.39619 1.70483 0 10.1011 0 20.4583C0 30.8155 8.39619 39.2118 18.7535 39.2118ZM24.6039 10.441C24.8887 9.42944 23.907 8.83128 23.0105 9.46999L10.4955 18.3856C9.52321 19.0783 9.67614 20.4583 10.7252 20.4583H14.0208V20.4328H20.4436L15.2102 22.2793L12.903 30.4756C12.6183 31.4872 13.5998 32.0853 14.4964 31.4466L27.0115 22.531C27.9837 21.8383 27.8307 20.4583 26.7817 20.4583H21.7841L24.6039 10.441Z" fill="#020202"/>
<path d="M47.2076 28.9052V25.9387H49.5603V13.9706H47.2076V11.0041H56.4139C57.505 11.0041 58.4512 11.1917 59.2525 11.5667C60.0708 11.9248 60.7016 12.4447 61.1449 13.1267C61.6052 13.7916 61.8353 14.5929 61.8353 15.5305V15.7863C61.8353 16.6046 61.6819 17.278 61.375 17.8065C61.0682 18.318 60.7016 18.7186 60.2754 19.0085C59.8662 19.2812 59.4741 19.4773 59.099 19.5966V20.0569C59.4741 20.1592 59.8833 20.3553 60.3265 20.6451C60.7698 20.9179 61.1449 21.3185 61.4518 21.8471C61.7757 22.3756 61.9376 23.066 61.9376 23.9185V24.1742C61.9376 25.163 61.7075 26.0154 61.2472 26.7315C60.7869 27.4305 60.1475 27.9675 59.3292 28.3426C58.5279 28.7176 57.5902 28.9052 56.5162 28.9052H47.2076ZM52.936 25.8364H56.107C56.8401 25.8364 57.4283 25.6574 57.8715 25.2994C58.3319 24.9414 58.562 24.4299 58.562 23.765V23.5093C58.562 22.8444 58.3404 22.3329 57.8971 21.9749C57.4539 21.6169 56.8572 21.4379 56.107 21.4379H52.936V25.8364ZM52.936 18.3691H56.0559C56.7549 18.3691 57.326 18.1901 57.7693 17.8321C58.2296 17.4741 58.4597 16.9797 58.4597 16.3489V16.0931C58.4597 15.4453 58.2381 14.9509 57.7948 14.6099C57.3516 14.2519 56.7719 14.0729 56.0559 14.0729H52.936V18.3691Z" fill="#020202"/>
<path d="M69.56 29.2632C68.2984 29.2632 67.1646 29.0075 66.1588 28.496C65.1529 27.9845 64.3601 27.2429 63.7805 26.2712C63.2008 25.2994 62.911 24.1316 62.911 22.7677V22.3585C62.911 20.9946 63.2008 19.8268 63.7805 18.855C64.3601 17.8833 65.1529 17.1416 66.1588 16.6302C67.1646 16.1187 68.2984 15.863 69.56 15.863C70.8216 15.863 71.9553 16.1187 72.9612 16.6302C73.967 17.1416 74.7598 17.8833 75.3394 18.855C75.9191 19.8268 76.2089 20.9946 76.2089 22.3585V22.7677C76.2089 24.1316 75.9191 25.2994 75.3394 26.2712C74.7598 27.2429 73.967 27.9845 72.9612 28.496C71.9553 29.0075 70.8216 29.2632 69.56 29.2632ZM69.56 26.399C70.5488 26.399 71.3671 26.0836 72.015 25.4528C72.6628 24.805 72.9867 23.8844 72.9867 22.691V22.4352C72.9867 21.2418 72.6628 20.3297 72.015 19.6989C71.3842 19.0511 70.5658 18.7272 69.56 18.7272C68.5711 18.7272 67.7528 19.0511 67.105 19.6989C66.4571 20.3297 66.1332 21.2418 66.1332 22.4352V22.691C66.1332 23.8844 66.4571 24.805 67.105 25.4528C67.7528 26.0836 68.5711 26.399 69.56 26.399Z" fill="#020202"/>
<path d="M77.9045 28.9052V11.0041H81.1267V28.9052H77.9045Z" fill="#020202"/>
<path d="M88.2775 28.9052C87.4421 28.9052 86.7602 28.6494 86.2317 28.138C85.7202 27.6095 85.4645 26.9105 85.4645 26.041V18.8806H82.2935V16.221H85.4645V12.2828H88.6867V16.221H92.1646V18.8806H88.6867V25.4784C88.6867 25.9899 88.9254 26.2456 89.4027 26.2456H91.8577V28.9052H88.2775Z" fill="#020202"/>
<path d="M99.0707 29.2632C97.417 29.2632 96.0616 28.9052 95.0046 28.1891C93.9476 27.4731 93.3083 26.4502 93.0866 25.1204L96.0531 24.3532C96.1724 24.9499 96.3685 25.4187 96.6413 25.7597C96.9311 26.1007 97.2806 26.3479 97.6898 26.5013C98.116 26.6377 98.5763 26.7059 99.0707 26.7059C99.8208 26.7059 100.375 26.578 100.733 26.3223C101.091 26.0495 101.27 25.7171 101.27 25.325C101.27 24.9328 101.099 24.6345 100.758 24.4299C100.418 24.2083 99.872 24.0293 99.1218 23.8929L98.4058 23.765C97.5193 23.5945 96.7095 23.3644 95.9764 23.0746C95.2433 22.7677 94.6551 22.35 94.2118 21.8215C93.7686 21.293 93.5469 20.611 93.5469 19.7756C93.5469 18.514 94.0073 17.5508 94.9279 16.8859C95.8485 16.204 97.059 15.863 98.5592 15.863C99.9743 15.863 101.151 16.1784 102.088 16.8092C103.026 17.44 103.64 18.2668 103.93 19.2898L100.938 20.2104C100.801 19.5625 100.52 19.1022 100.094 18.8294C99.6844 18.5567 99.173 18.4203 98.5592 18.4203C97.9455 18.4203 97.4766 18.5311 97.1527 18.7527C96.8288 18.9573 96.6668 19.2471 96.6668 19.6222C96.6668 20.0314 96.8373 20.3382 97.1783 20.5428C97.5193 20.7304 97.9796 20.8753 98.5592 20.9776L99.2753 21.1054C100.23 21.2759 101.091 21.5061 101.858 21.7959C102.642 22.0687 103.256 22.4693 103.699 22.9978C104.16 23.5093 104.39 24.2083 104.39 25.0948C104.39 26.4246 103.904 27.456 102.932 28.1891C101.977 28.9052 100.69 29.2632 99.0707 29.2632Z" fill="#020202"/>
<path d="M105.935 28.9052V11.0041H109.157V17.781H109.617C109.754 17.5082 109.967 17.2354 110.257 16.9626C110.546 16.6898 110.93 16.4682 111.407 16.2977C111.902 16.1102 112.524 16.0164 113.274 16.0164C114.263 16.0164 115.124 16.2466 115.857 16.7069C116.607 17.1502 117.187 17.7724 117.596 18.5737C118.005 19.358 118.21 20.2786 118.21 21.3356V28.9052H114.988V21.5913C114.988 20.6366 114.749 19.9206 114.272 19.4432C113.811 18.9658 113.146 18.7272 112.277 18.7272C111.288 18.7272 110.521 19.0596 109.975 19.7245C109.43 20.3723 109.157 21.2844 109.157 22.4608V28.9052H105.935Z" fill="#020202"/>
<path d="M120.414 28.9052V16.221H123.637V28.9052H120.414ZM122.026 14.7378C121.446 14.7378 120.952 14.5502 120.542 14.1752C120.15 13.8001 119.954 13.3057 119.954 12.692C119.954 12.0782 120.15 11.5838 120.542 11.2087C120.952 10.8337 121.446 10.6461 122.026 10.6461C122.622 10.6461 123.117 10.8337 123.509 11.2087C123.901 11.5838 124.097 12.0782 124.097 12.692C124.097 13.3057 123.901 13.8001 123.509 14.1752C123.117 14.5502 122.622 14.7378 122.026 14.7378Z" fill="#020202"/>
<path d="M128.026 28.9052V18.8806H124.803V16.221H128.026V13.8683C128.026 12.9988 128.281 12.3084 128.793 11.7969C129.321 11.2684 130.003 11.0041 130.839 11.0041H134.163V13.6637H131.964C131.486 13.6637 131.248 13.9195 131.248 14.4309V16.221H134.572V18.8806H131.248V28.9052H128.026Z" fill="#020202"/>
<path d="M140.397 28.9052C139.562 28.9052 138.88 28.6494 138.351 28.138C137.84 27.6095 137.584 26.9105 137.584 26.041V18.8806H134.413V16.221H137.584V12.2828H140.806V16.221H144.284V18.8806H140.806V25.4784C140.806 25.9899 141.045 26.2456 141.523 26.2456H143.978V28.9052H140.397Z" fill="#020202"/>
</svg>
