<svg width="163" height="48" viewBox="0 0 163 48" fill="none" xmlns="http://www.w3.org/2000/svg">
<circle cx="16" cy="18" r="14" stroke="#0E0E0E" stroke-width="4"/>
<circle cx="24" cy="30" r="14" stroke="#0E0E0E" stroke-width="4"/>
<path d="M51.9502 33.9092H56.4802V12.9092H51.9502V33.9092Z" fill="#0E0E0E"/>
<path d="M58.4677 33.9092H62.6677V25.6292C62.6677 23.6792 63.9577 22.2692 65.7877 22.2692C67.5277 22.2692 68.6977 23.5892 68.6977 25.4192V33.9092H72.8977V24.4892C72.8977 21.0092 70.6777 18.5492 67.2577 18.5492C65.1877 18.5492 63.5077 19.4192 62.6677 20.8892V18.7892H58.4677V33.9092Z" fill="#0E0E0E"/>
<path d="M75.9392 14.3192V18.7892H73.0292V22.2692H75.9392V28.4192C75.9392 31.9292 78.1892 33.9092 81.6692 33.9092H84.1592V30.3992H82.2392C80.8892 30.3992 80.1092 29.7092 80.1092 28.2392V22.2692H84.1592V18.7892H80.1092V14.3192H75.9392Z" fill="#0E0E0E"/>
<path d="M94.7574 28.7792C94.4274 30.0692 93.3174 30.7292 91.6374 30.7292C89.5374 30.7292 88.1874 29.4092 87.8874 27.2792H98.7474C98.7774 26.9492 98.8074 26.4992 98.8074 25.9292C98.8074 22.4792 96.6774 18.5492 91.3374 18.5492C86.2074 18.5492 83.8674 22.4792 83.8674 26.3192C83.8674 30.1292 86.5074 34.1492 91.6374 34.1492C95.3574 34.1492 98.2374 32.0492 98.8374 28.7792H94.7574ZM91.3374 21.6092C93.3474 21.6092 94.5174 22.9592 94.6374 24.6392H87.9474C88.3074 22.5392 89.4474 21.6092 91.3374 21.6092Z" fill="#0E0E0E"/>
<path d="M109.302 22.2692V18.7892H107.592C105.762 18.7892 104.622 19.4192 103.812 21.3092V18.7892H99.6122V33.9092H103.812V26.5592C103.812 23.9792 104.742 22.2692 106.812 22.2692H109.302Z" fill="#0E0E0E"/>
<path d="M109.983 33.9092H114.153V12.2192H109.983V33.9092Z" fill="#0E0E0E"/>
<path d="M123.148 34.1492C127.798 34.1492 131.128 30.8492 131.128 26.3492C131.128 21.8492 127.798 18.5492 123.148 18.5492C118.498 18.5492 115.168 21.8492 115.168 26.3492C115.168 30.8492 118.498 34.1492 123.148 34.1492ZM123.148 30.5492C120.898 30.5492 119.368 28.8392 119.368 26.3492C119.368 23.8292 120.898 22.1192 123.148 22.1192C125.398 22.1192 126.928 23.8292 126.928 26.3492C126.928 28.8392 125.398 30.5492 123.148 30.5492Z" fill="#0E0E0E"/>
<path d="M138.929 34.1492C142.859 34.1492 145.979 31.6292 146.429 28.2692H142.169C141.869 29.6192 140.639 30.5492 139.109 30.5492C136.829 30.5492 135.479 28.8092 135.479 26.3492C135.479 23.8892 136.799 22.1192 139.049 22.1192C140.579 22.1192 141.869 23.1092 142.109 24.4592H146.309C146.039 20.9492 142.889 18.5492 138.929 18.5492C134.249 18.5492 131.129 21.9392 131.129 26.3492C131.129 30.7592 134.249 34.1492 138.929 34.1492Z" fill="#0E0E0E"/>
<path d="M157.46 33.9092H162.5L155.99 24.7292L162.02 18.7892H156.74L151.49 23.9492V12.2192H147.29V33.9092H151.49V29.1692L153.17 27.5192L157.46 33.9092Z" fill="#0E0E0E"/>
</svg>
