<svg width="83" height="60" viewBox="0 0 83 60" fill="none" xmlns="http://www.w3.org/2000/svg">
<path d="M2.68202 34.7912V10.9912H5.53802V34.7912H2.68202ZM10.4144 34.7912V17.9272H12.9984L13.1684 20.9532C13.7124 19.8879 14.4944 19.0492 15.5144 18.4372C16.5344 17.8252 17.6904 17.5192 18.9824 17.5192C20.977 17.5192 22.5637 18.1312 23.7424 19.3552C24.9437 20.5566 25.5444 22.4152 25.5444 24.9312V34.7912H22.6884V25.2372C22.6884 21.7239 21.2377 19.9672 18.3364 19.9672C16.8857 19.9672 15.673 20.4999 14.6984 21.5652C13.7464 22.6079 13.2704 24.1039 13.2704 26.0532V34.7912H10.4144Z" fill="#213753"/>
<path d="M22.682 49.8066V26.0066H25.538V47.5286H36.622V49.8066H22.682ZM45.9853 50.2146C44.58 50.2146 43.4126 49.9766 42.4833 49.5006C41.554 49.0246 40.8626 48.3899 40.4093 47.5966C39.956 46.8033 39.7293 45.9419 39.7293 45.0126C39.7293 43.2899 40.3866 41.9639 41.7013 41.0346C43.016 40.1053 44.8066 39.6406 47.0733 39.6406H51.6293V39.4366C51.6293 37.9633 51.244 36.8526 50.4733 36.1046C49.7026 35.3339 48.6713 34.9486 47.3793 34.9486C46.2686 34.9486 45.3053 35.2319 44.4893 35.7986C43.696 36.3426 43.1973 37.1473 42.9933 38.2126H40.0693C40.1826 36.9886 40.5906 35.9573 41.2933 35.1186C42.0186 34.2799 42.914 33.6453 43.9793 33.2146C45.0446 32.7613 46.178 32.5346 47.3793 32.5346C49.7366 32.5346 51.5046 33.1693 52.6833 34.4386C53.8846 35.6853 54.4853 37.3513 54.4853 39.4366V49.8066H51.9353L51.7653 46.7806C51.2893 47.7326 50.5866 48.5486 49.6573 49.2286C48.7506 49.8859 47.5266 50.2146 45.9853 50.2146ZM46.4273 47.8006C47.5153 47.8006 48.4446 47.5173 49.2153 46.9506C50.0086 46.3839 50.6093 45.6473 51.0173 44.7406C51.4253 43.8339 51.6293 42.8819 51.6293 41.8846V41.8506H47.3113C45.634 41.8506 44.444 42.1453 43.7413 42.7346C43.0613 43.3013 42.7213 44.0153 42.7213 44.8766C42.7213 45.7606 43.0386 46.4746 43.6733 47.0186C44.3306 47.5399 45.2486 47.8006 46.4273 47.8006ZM61.8378 49.8066L56.9078 32.9426H59.7638L63.3338 46.1686L67.2778 32.9426H70.5078L74.4858 46.1686L78.0218 32.9426H80.9118L75.9818 49.8066H73.0578L68.9098 35.9006L64.7618 49.8066H61.8378Z" fill="#213753"/>
<path d="M2.80762 39.8575C2.80762 39.8575 16.5445 42.0541 25.1637 36.6493C33.7829 31.2445 38.2969 25.02 38.2969 25.02" stroke="#213753"/>
</svg>
