<svg width="83" height="60" viewBox="0 0 83 60" fill="none" xmlns="http://www.w3.org/2000/svg">
<path d="M3.34632 34.7912V10.9912H6.20232V34.7912H3.34632ZM11.0787 34.7912V17.9272H13.6627L13.8327 20.9532C14.3767 19.8879 15.1587 19.0492 16.1787 18.4372C17.1987 17.8252 18.3547 17.5192 19.6467 17.5192C21.6413 17.5192 23.228 18.1312 24.4067 19.3552C25.608 20.5566 26.2087 22.4152 26.2087 24.9312V34.7912H23.3527V25.2372C23.3527 21.7239 21.902 19.9672 19.0007 19.9672C17.55 19.9672 16.3373 20.4999 15.3627 21.5652C14.4107 22.6079 13.9347 24.1039 13.9347 26.0532V34.7912H11.0787Z" fill="white"/>
<path d="M23.3463 49.8066V26.0066H26.2023V47.5286H37.2863V49.8066H23.3463ZM46.6496 50.2146C45.2443 50.2146 44.0769 49.9766 43.1476 49.5006C42.2183 49.0246 41.5269 48.3899 41.0736 47.5966C40.6203 46.8033 40.3936 45.9419 40.3936 45.0126C40.3936 43.2899 41.0509 41.9639 42.3656 41.0346C43.6803 40.1053 45.4709 39.6406 47.7376 39.6406H52.2936V39.4366C52.2936 37.9633 51.9083 36.8526 51.1376 36.1046C50.3669 35.3339 49.3356 34.9486 48.0436 34.9486C46.9329 34.9486 45.9696 35.2319 45.1536 35.7986C44.3603 36.3426 43.8616 37.1473 43.6576 38.2126H40.7336C40.8469 36.9886 41.2549 35.9573 41.9576 35.1186C42.6829 34.2799 43.5783 33.6453 44.6436 33.2146C45.7089 32.7613 46.8423 32.5346 48.0436 32.5346C50.4009 32.5346 52.1689 33.1693 53.3476 34.4386C54.5489 35.6853 55.1496 37.3513 55.1496 39.4366V49.8066H52.5996L52.4296 46.7806C51.9536 47.7326 51.2509 48.5486 50.3216 49.2286C49.4149 49.8859 48.1909 50.2146 46.6496 50.2146ZM47.0916 47.8006C48.1796 47.8006 49.1089 47.5173 49.8796 46.9506C50.6729 46.3839 51.2736 45.6473 51.6816 44.7406C52.0896 43.8339 52.2936 42.8819 52.2936 41.8846V41.8506H47.9756C46.2983 41.8506 45.1083 42.1453 44.4056 42.7346C43.7256 43.3013 43.3856 44.0153 43.3856 44.8766C43.3856 45.7606 43.7029 46.4746 44.3376 47.0186C44.9949 47.5399 45.9129 47.8006 47.0916 47.8006ZM62.5021 49.8066L57.5721 32.9426H60.4281L63.9981 46.1686L67.9421 32.9426H71.1721L75.1501 46.1686L78.6861 32.9426H81.5761L76.6461 49.8066H73.7221L69.5741 35.9006L65.4261 49.8066H62.5021Z" fill="white"/>
<path d="M3.47192 39.8575C3.47192 39.8575 17.2088 42.0541 25.828 36.6493C34.4473 31.2445 38.9612 25.02 38.9612 25.02" stroke="white"/>
</svg>
