<svg xmlns="http://www.w3.org/2000/svg" version="1.1" xmlns:xlink="http://www.w3.org/1999/xlink" width="512" height="512" x="0" y="0" viewBox="0 0 512 512" style="enable-background:new 0 0 512 512" xml:space="preserve" class=""><g><path d="M444.5 95H497c8.284 0 15-6.716 15-15s-6.716-15-15-15h-72.793L315.938 32.43a59.604 59.604 0 0 1-8.676 28.719l94.498 28.427-68.606 164.654A15.018 15.018 0 0 0 332 260v5c0 49.626 40.374 90 90 90s90-40.374 90-90v-5c0-1.98-.393-3.941-1.154-5.769zm-81.25 165L422 119l58.75 141zM90 355c49.626 0 90-40.374 90-90v-5c0-1.98-.393-3.941-1.154-5.769L110.24 89.576l94.498-28.427a59.603 59.603 0 0 1-8.675-28.719L87.793 65H15C6.716 65 0 71.716 0 80s6.716 15 15 15h52.5L1.154 254.23A15.018 15.018 0 0 0 0 260v5c0 49.626 40.374 90 90 90zm0-236 58.75 141H31.25z" fill="#213753" opacity="1" data-original="#000000" class=""></path><circle cx="256" cy="30" r="30" fill="#213753" opacity="1" data-original="#000000" class=""></circle><path d="M241 88.101v205.6c4.828-1.1 9.844-1.701 15-1.701s10.172.601 15 1.701v-205.6C266.204 89.34 261.178 90 256 90s-10.204-.66-15-1.899zM293.5 359.5c0-20.711-16.789-37.5-37.5-37.5s-37.5 16.789-37.5 37.5V407h75zM497 482H371c0-24.853-20.147-45-45-45H186c-24.853 0-45 20.147-45 45H15c-8.284 0-15 6.716-15 15s6.716 15 15 15h482c8.284 0 15-6.716 15-15s-6.716-15-15-15z" fill="#213753" opacity="1" data-original="#000000" class=""></path></g></svg>