<svg width="21" height="20" viewBox="0 0 21 20" fill="none" xmlns="http://www.w3.org/2000/svg">
<g clip-path="url(#clip0_2531_20)">
<path d="M0.962527 10.4077H20.0395C20.2664 10.4077 20.4497 10.2244 20.4497 9.99745C20.4497 9.77052 20.2664 9.58719 20.0395 9.58719H1.95355L4.4433 7.09745C4.60355 6.93719 4.60355 6.67693 4.4433 6.51668C4.28304 6.35642 4.02278 6.35642 3.86253 6.51668L0.671502 9.7077C0.553554 9.82565 0.518938 10.0013 0.58304 10.1551C0.647143 10.3077 0.797143 10.4077 0.962527 10.4077Z" fill="white"/>
<path d="M4.15745 13.6026C4.26257 13.6026 4.3677 13.5628 4.44719 13.4821C4.60745 13.3218 4.60745 13.0616 4.44719 12.9013L1.25232 9.70643C1.09206 9.54618 0.831806 9.54618 0.67155 9.70643C0.511293 9.86669 0.511293 10.1269 0.67155 10.2872L3.86642 13.4821C3.94719 13.5628 4.05232 13.6026 4.15745 13.6026Z" fill="white"/>
</g>
<defs>
<clipPath id="clip0_2531_20">
<rect width="20" height="20" fill="white" transform="translate(0.5)"/>
</clipPath>
</defs>
</svg>
