<svg width="21" height="20" viewBox="0 0 21 20" fill="none" xmlns="http://www.w3.org/2000/svg">
<g clip-path="url(#clip0_2531_12)">
<path d="M20.0384 10.4077H0.961526C0.734603 10.4077 0.55127 10.2244 0.55127 9.99745C0.55127 9.77052 0.734603 9.58719 0.961526 9.58719H19.0474L16.5577 7.09745C16.3974 6.93719 16.3974 6.67693 16.5577 6.51668C16.7179 6.35642 16.9782 6.35642 17.1384 6.51668L20.3295 9.7077C20.4474 9.82565 20.482 10.0013 20.4179 10.1551C20.3538 10.3077 20.2038 10.4077 20.0384 10.4077Z" fill="white"/>
<path d="M16.8435 13.6026C16.7384 13.6026 16.6333 13.5628 16.5538 13.4821C16.3935 13.3218 16.3935 13.0616 16.5538 12.9013L19.7487 9.70643C19.9089 9.54618 20.1692 9.54618 20.3294 9.70643C20.4897 9.86669 20.4897 10.1269 20.3294 10.2872L17.1346 13.4821C17.0538 13.5628 16.9487 13.6026 16.8435 13.6026Z" fill="white"/>
</g>
<defs>
<clipPath id="clip0_2531_12">
<rect width="20" height="20" fill="white" transform="translate(0.5)"/>
</clipPath>
</defs>
</svg>
